<?xml version="1.0" encoding="utf-8"?>
<!-- Generator: Adobe Illustrator 16.0.0, SVG Export Plug-In . SVG Version: 6.00 Build 0)  -->
<!DOCTYPE svg PUBLIC "-//W3C//DTD SVG 1.1//EN" "http://www.w3.org/Graphics/SVG/1.1/DTD/svg11.dtd">
<svg version="1.1" id="Layer_1" xmlns="http://www.w3.org/2000/svg" xmlns:xlink="http://www.w3.org/1999/xlink" x="0px" y="0px"
	 width="443px" height="560px" viewBox="0 0 443 560" enable-background="new 0 0 443 560" xml:space="preserve">
<rect x="15" y="70" fill="#243C58" width="388" height="416"/>
<g>
	<path fill="#EEE7DF" d="M137.419,374.894c0-13.201,2.189-24.701,6.566-34.498c4.377-9.798,10.182-18.793,17.405-26.995h-0.208
		c4.866-5.557,9.139-10.907,12.819-16.05c3.684-5.14,5.524-9.935,5.524-14.383c0-2.779-0.625-5.28-1.876-7.505
		c-1.251-2.221-3.055-4.932-5.419-8.129c-0.137-0.417-0.658-1.146-1.564-2.189c-0.902-1.041-1.908-2.257-3.022-3.647
		c-1.111-1.388-2.326-2.882-3.648-4.481c-1.319-1.596-2.606-3.16-3.856-4.69L186.333,211c3.199,4.726,29.671,36.463,31.756,40.491
		c2.084,4.032,3.719,7.816,4.898,11.361c1.182,3.543,2.016,6.983,2.501,10.317c0.488,3.335,0.729,6.603,0.729,9.798
		c0,4.169-0.658,8.233-1.98,12.194c-1.319,3.96-3.022,7.853-5.107,11.673c-2.084,3.823-4.481,7.608-7.191,11.36
		s-5.524,7.504-8.442,11.256c-5.697,7.088-10.11,14.768-13.236,23.034c-3.127,8.27-4.69,16.989-4.69,26.16v11.257
		c0,8.478,0.87,16.19,2.606,23.138c1.739,6.95,4.377,12.924,7.921,17.927c3.544,5.002,7.921,9.333,13.132,12.043
		s11.292,3.59,18.239,3.59c6.117,0,11.709-1.006,16.78-3.021c5.075-2.013,9.452-5.244,13.133-9.693
		c3.683-4.446,6.565-10.246,8.65-17.405c2.084-7.155,3.126-15.875,3.126-26.16V69.313h48.152v321.006
		c0,17.093-2.221,31.964-6.671,44.608c-4.446,12.646-10.631,23.137-18.551,31.476c-7.921,8.338-17.37,14.522-28.35,18.552
		c-10.976,4.031-23.066,6.045-36.27,6.045c-13.061,0-25.118-2.465-36.166-7.4c-11.048-4.931-20.564-11.776-28.558-20.532
		c-7.99-8.755-14.207-19.141-18.656-31.163c-4.446-12.018-6.67-25.118-6.67-39.293V374.894z"/>
</g>
</svg>
